<svg version="1" xmlns="http://www.w3.org/2000/svg" width="682.667" height="682.667" viewBox="0 0 512.000000 512.000000"><path d="M240.6 18.7c-.2.2-2.1.6-4.2.8-4.8.4-8.3 1.2-15.4 3.1-3 .8-6.2 1.7-7 1.9-.8.2-1.5.4-1.5.5 0 .1-.7.3-1.5.5-.8.1-3.3 1-5.5 1.9-2.2 1-4.1 1.7-4.2 1.7-.9-.2-14.3 7.6-20 11.6-7.8 5.4-21.7 19-25.9 25.2-8.6 12.9-15.4 25.6-15.5 29.1-.1.3-.4.9-.9 1.5-.8 1.1-4.7 12.6-5.6 16.6-.3 1.3-.8 3.5-1.1 4.9-.3 1.4-.7 3.4-.8 4.5-.2 1.1-.4 2-.5 2-.2 0-.4.9-.5 2-.1 1.1-.6 4.2-1 7-1.3 8.9-1.7 16.5-1.8 42l-.2 25.1-2.5.1c-3.8.1-9.2 1-12 2.1-1.4.5-2.9 1-3.5 1.1-.5 0-3.9 1.5-7.5 3.3-7.9 4.1-18.4 14.4-22.2 21.9-3.9 7.7-5.9 13-5.3 13.9.3.5.2 1.1-.3 1.4-.4.2-.9 2.2-1.1 4.3-.7 7.1-.5 192.8.2 196.8 1.5 9 2.1 11.1 3.4 13.2.8 1.2 1.4 2.5 1.3 2.8-.5 1.7 7.7 13 13.1 17.8 5.3 4.9 16.3 11.4 20.8 12.2.9.2 1.7.4 1.9.5.1.2 1 .3 2 .4.9.1 2.2.4 2.7.7 2.2 1.4 279 .3 279-1.1 0-.1 1-.3 2.2-.6 7.2-1.3 19.6-9.4 26.1-17 3.9-4.6 10-15.5 10.7-19.1.2-1 .4-1.8.6-1.8 1 0 1.3-18.4 1.6-105.6.2-86.1.1-101.3-1.2-104.8-.8-2.3-1.4-4.3-1.4-4.6-.1-.3-.8-2.1-1.6-4.1-.8-2-1.5-3.8-1.5-4 0-.2-1.4-2.5-3.2-5.1-3.8-5.6-13.6-15.3-15.5-15.3-.7 0-1.3-.4-1.3-.8 0-.8-7-4.3-8.7-4.4-.5 0-1.6-.4-2.6-1-2-1-4.6-1.7-9.2-2.4-1.6-.2-3.9-.6-5-.8-1.1-.3-2.2-.5-2.5-.5-.3-.1-.6-10.3-.6-22.9-.2-25.1-1.1-41.3-2.9-49.2-.4-1.4-.8-3.8-1.1-5.3-.3-1.5-1.2-5.1-2-8-.8-2.9-1.6-6.1-1.8-7.2-.2-1.1-.5-2.1-.6-2.3-.1-.1-.3-.5-.4-1-.2-.9-2.3-6.4-4.3-11.2-4.6-10.9-12-23.7-16-27.8-.7-.7-1.3-1.7-1.3-2.1C354 60 325 35 321.4 35c-.7 0-1.4-.4-1.6-.8-.4-.9-13.5-7.2-16-7.7-.9-.2-2.7-.9-4-1.6-1.3-.7-2.3-1.1-2.3-1 0 .1-.7 0-1.5-.3-2.4-.7-7.4-1.9-9-2.2-.8-.1-2.8-.5-4.5-.9-1.6-.3-4.3-.8-6-1.1-3.7-.6-35.3-1.2-35.9-.7zM274 75.4c1.4.4 3.6.9 4.9 1.2 1.3.3 3.1.9 4 1.3.9.5 1.8.9 2.1.8.3 0 3.2 1.3 6.5 2.9 9.1 4.4 19.9 15.8 25.1 26.4 2.3 4.7 4.7 10.3 5.4 12.5.6 2.2 1.4 4.7 1.8 5.5.3.8.7 2.2.8 3 .1.8.5 2.8.9 4.5 2 9.2 2.7 19.1 2.8 44l.2 23h-145l.1-24.5c.2-23.5.6-32.5 1.9-38 .4-1.4.8-3.7 1-5.1.2-1.4.9-3.8 1.4-5.2.6-1.5.9-2.7.6-2.7-.2 0 .4-2 1.5-4.5s2-4.7 2-5c.3-2 3.8-8.9 6.8-13.5 4.6-7 11.5-13.9 18.4-18.3 5.5-3.5 17-7.8 22-8.2 1.6-.2 3.1-.5 3.4-.8.8-.7 28.3-.1 31.4.7zm-7.2 219.4c1.2.7 2.2 1 2.2.7 0-.9 8.4 4.6 11.8 7.8 3.4 3.3 9 12.4 9.5 15.4.1 1 .5 2.2.8 2.8.5 1 .3 12.1-.4 16-1 6.3-9.5 18.2-15.2 21.3-1.8 1-1.9 2.2-2 24.4l-.1 23.4-2.9 4.7c-4.4 6.9-11.2 9.4-20.3 7.2-3.5-.8-11.1-8.5-11.3-11.4-.1-.9-.3-11.5-.4-23.6-.1-12.1-.3-22.5-.4-23 0-.6-1.8-2.1-4-3.4-5.1-3.2-11.3-12.4-12.9-19.1-.7-3.2-.6-15.8.1-18.8 1.3-5.1 5.3-11.5 10.1-16 4.9-4.5 11.6-9 11.6-7.7 0 .3 1.2-.1 2.6-.8 3.3-1.7 17.9-1.6 21.2.1z"/></svg>